<svg version="1.1" id="Layer_1" xmlns="http://www.w3.org/2000/svg" xmlns:xlink="http://www.w3.org/1999/xlink" x="0px" y="0px"
	 width="100%" viewBox="0 0 512 512" enable-background="new 0 0 512 512" xml:space="preserve">
<path fill="#FFDEE3" opacity="1.000000" stroke="none" 
	d="
M513.000000,251.000000 
	C513.000000,260.354218 513.000000,269.708466 512.694580,279.237610 
	C512.116211,279.932587 511.843201,280.452667 511.570190,280.972717 
	C512.046814,280.981812 512.523376,280.990906 513.000000,281.000000 
	C513.000000,283.370575 513.000000,285.741119 512.705750,288.262634 
	C511.885468,289.275116 511.359436,290.136627 510.375366,290.998779 
	C466.064941,290.993866 422.212585,290.988312 378.231140,290.636963 
	C376.355682,284.861206 372.255310,283.810059 367.101624,283.815430 
	C293.780396,283.892029 220.459030,283.867523 147.137711,283.868469 
	C146.137939,283.868500 145.134964,283.832703 144.138916,283.897339 
	C137.675949,284.316681 134.067505,289.333862 135.771378,295.546478 
	C136.820480,299.371613 137.921173,303.182648 138.530121,307.000000 
	C98.950951,307.000000 59.840294,306.963135 20.729881,307.046082 
	C15.781244,307.056580 10.833939,307.695435 5.528920,307.845825 
	C4.441689,301.903076 3.760192,296.150391 2.904255,290.423767 
	C2.821004,289.866760 1.660472,289.470734 1.000000,289.000000 
	C1.000000,276.979095 1.000000,264.958221 1.468657,252.468658 
	C54.237991,251.998245 106.538666,251.996490 158.897980,252.417908 
	C159.669327,256.893982 160.382065,260.946869 161.143707,265.227386 
	C161.374619,265.762848 161.641174,265.882721 162.459274,265.859375 
	C175.270691,265.862061 187.615112,265.820007 200.165588,265.763184 
	C200.455627,265.638550 200.634445,265.479797 200.607346,265.427277 
	C200.485519,265.191193 200.305191,264.985352 200.108932,264.395966 
	C198.970978,260.022095 197.870056,256.020844 197.251587,252.013870 
	C203.222000,251.990479 208.709946,251.972824 214.429504,252.207703 
	C215.730667,254.890793 216.878403,257.290497 217.853058,259.758484 
	C219.720291,264.486603 222.796021,266.208954 228.155167,266.090118 
	C246.283325,265.688202 264.425903,265.936859 282.562988,265.936859 
	C293.272736,265.936859 295.797913,264.033630 298.886444,253.662338 
	C299.158386,252.749115 299.511810,251.860138 300.305817,250.971771 
	C306.216736,250.996475 311.649231,251.009323 317.051208,251.437073 
	C315.958618,256.148010 314.896545,260.444031 313.672852,264.879944 
	C313.687012,265.273865 313.862793,265.527924 314.501404,265.838440 
	C327.311005,265.867950 339.657745,265.841034 352.233521,265.795715 
	C352.769012,265.608337 352.901123,265.350067 352.936157,264.590820 
	C353.396179,259.784058 353.778900,255.388947 354.620178,250.995834 
	C407.719147,250.998566 460.359589,250.999283 513.000000,251.000000 
z"/>
<path fill="#000000" opacity="1.000000" stroke="none" 
	d="
M289.000000,1.000003 
	C363.593719,1.000000 438.187408,1.000000 513.000000,1.000000 
	C513.000000,75.354088 513.000000,149.708389 512.642151,224.837677 
	C511.467316,221.741486 510.650330,217.870285 509.903748,213.590240 
	C509.652161,212.292404 509.244537,211.424362 509.021545,210.511215 
	C506.698700,200.999664 504.405518,191.480881 502.055237,181.566284 
	C496.615387,167.778473 491.224487,154.388489 485.813965,140.640472 
	C483.786438,136.642715 482.009094,132.850754 479.726044,129.392654 
	C473.637268,120.170052 467.330994,111.091049 460.976379,101.630600 
	C454.931183,94.522148 449.020782,87.738060 442.974792,80.628838 
	C431.796234,68.821716 420.080292,58.106209 406.912903,48.557735 
	C398.996735,43.466274 391.478729,38.199661 383.388519,34.048157 
	C370.875549,27.627060 358.248199,21.258150 345.165588,16.159655 
	C327.605804,9.316314 309.392792,4.444433 290.453094,2.901790 
	C289.920593,2.858418 289.482239,1.659892 289.000000,1.000003 
z"/>
<path fill="#000000" opacity="1.000000" stroke="none" 
	d="
M1.000000,289.468658 
	C1.660472,289.470734 2.821004,289.866760 2.904255,290.423767 
	C3.760192,296.150391 4.441689,301.903076 5.579304,308.267212 
	C5.997918,309.880585 5.811597,310.925232 6.048986,311.862579 
	C12.432884,337.069702 20.529915,361.614258 34.180660,384.350739 
	C36.791088,388.760773 39.139996,393.002777 42.031162,396.835754 
	C50.196083,407.660431 58.583431,418.317383 67.011139,429.353912 
	C69.361855,431.881042 71.604248,434.075317 73.803894,436.311615 
	C83.422424,446.090576 93.100052,455.798615 105.026382,463.370636 
	C119.553772,474.431763 134.894943,483.509460 151.331223,490.821747 
	C174.283157,501.032684 198.006882,508.315491 223.046478,511.074219 
	C223.759720,511.152802 224.351547,512.333313 225.000000,513.000000 
	C150.406296,513.000000 75.812599,513.000000 1.000000,513.000000 
	C1.000000,438.645905 1.000000,364.291626 1.000000,289.468658 
z"/>
<path fill="#000000" opacity="1.000000" stroke="none" 
	d="
M510.833435,290.998138 
	C511.359436,290.136627 511.885468,289.275116 512.705750,288.706787 
	C513.000000,363.593719 513.000000,438.187408 513.000000,513.000000 
	C438.645905,513.000000 364.291626,513.000000 289.161682,512.633850 
	C289.225372,511.845184 290.021454,511.221619 290.910553,511.030273 
	C304.742249,508.054413 318.733917,505.691772 332.391022,502.066437 
	C351.246368,497.061310 368.981415,489.055817 385.692627,478.984192 
	C393.376373,474.353394 400.651947,469.045288 408.432861,463.913391 
	C423.878357,453.369659 436.609741,440.326538 449.442078,426.914612 
	C451.156708,425.038696 452.603302,423.329681 453.937408,421.536957 
	C458.993225,414.742950 464.012573,407.921875 469.369263,400.962189 
	C470.065948,400.104797 470.417053,399.383636 470.815216,398.689453 
	C475.911102,389.804871 481.013733,380.924164 486.440491,371.889832 
	C492.122101,357.823975 497.477814,343.910767 502.912720,329.607605 
	C503.835968,326.472412 504.944458,323.777313 505.476501,320.972809 
	C507.368286,311.001373 509.063690,300.992706 510.833435,290.998138 
z"/>
<path fill="#000000" opacity="1.000000" stroke="none" 
	d="
M1.000000,224.000000 
	C1.000000,149.739456 1.000000,75.478920 1.000000,1.000000 
	C75.354088,1.000000 149.708389,1.000000 224.838470,1.364812 
	C224.774139,2.150895 223.977066,2.771508 223.087479,2.963591 
	C209.240433,5.953529 195.240875,8.355247 181.559280,11.964578 
	C162.693497,16.941538 144.982544,24.988068 128.266678,35.038845 
	C120.591141,39.653934 113.332977,44.963169 105.554688,50.093956 
	C92.194740,59.415882 80.534851,70.126518 69.571243,82.078957 
	C63.803486,88.782784 58.347466,95.367546 52.569664,102.080734 
	C51.294579,103.502800 50.254639,104.742020 49.402138,106.098999 
	C44.205200,114.371300 39.050869,122.670364 33.559315,131.104187 
	C27.213116,144.831436 21.189924,158.415009 15.001889,172.348389 
	C12.896465,178.563995 10.636758,184.347763 9.101590,190.317825 
	C7.437919,196.787598 6.449492,203.431030 4.977469,210.367371 
	C4.191791,214.177734 3.707627,217.645050 2.932877,221.046173 
	C2.687875,222.121735 1.666223,223.020386 1.000000,224.000000 
z"/>
<path fill="#FFE1E6" opacity="1.000000" stroke="none" 
	d="
M1.000000,224.454102 
	C1.666223,223.020386 2.687875,222.121735 2.932877,221.046173 
	C3.707627,217.645050 4.191791,214.177734 5.435523,210.367767 
	C58.737221,210.003693 111.391754,210.007874 164.032013,210.424866 
	C163.067123,215.155838 161.895126,219.441040 161.245041,223.804031 
	C160.823776,226.631195 159.547974,230.548737 165.061310,230.505493 
	C168.472198,234.163177 170.842606,233.920303 173.364563,230.010071 
	C174.468445,229.934204 175.206253,229.908875 176.166718,230.164307 
	C178.258255,229.679062 180.127121,228.913071 182.317505,227.974792 
	C187.362320,225.430817 192.179443,223.227356 196.791168,220.655579 
	C210.237320,213.157257 223.601395,205.511734 237.392517,197.926422 
	C243.583344,196.930130 249.390915,195.071426 255.172348,195.149368 
	C262.460022,195.247604 269.726379,196.927032 277.304871,198.116562 
	C286.350861,202.893845 295.093933,207.478867 304.033325,212.345917 
	C312.556885,217.416458 320.708801,222.550766 329.264679,226.888214 
	C336.615021,230.614502 344.649109,230.748871 352.935577,229.425522 
	C351.855988,223.288223 350.867371,217.667969 350.259216,212.076599 
	C353.445709,214.818436 356.858826,215.064392 360.584259,215.057480 
	C407.717468,214.970078 454.850891,215.015976 501.984161,214.957321 
	C504.600983,214.954071 507.216980,214.332748 509.833374,213.999100 
	C510.650330,217.870285 511.467316,221.741486 512.642151,225.306335 
	C513.000000,233.354233 513.000000,241.708466 513.000000,250.531342 
	C460.359589,250.999283 407.719147,250.998566 354.554688,250.571854 
	C352.686035,249.420532 351.389984,248.193405 349.988342,248.057785 
	C344.288025,247.506348 338.476318,247.755615 332.859253,246.803635 
	C328.274780,246.026642 323.908569,243.961899 319.244934,242.400955 
	C318.477509,245.459457 317.779602,248.240814 317.081696,251.022156 
	C311.649231,251.009323 306.216736,250.996475 300.374329,250.553207 
	C300.257019,246.079269 300.549683,242.035767 300.898010,237.566833 
	C301.292297,233.872940 301.002380,231.329712 297.277313,229.600449 
	C293.173981,227.695602 289.659149,224.561462 285.759827,222.171906 
	C270.899384,213.065186 255.244064,209.018631 238.663086,216.877884 
	C230.334869,220.825378 222.569153,225.985626 214.686386,230.821274 
	C213.377792,231.624023 212.775162,233.577576 211.387268,234.999573 
	C143.220215,234.999878 75.512169,235.009659 7.804171,234.957962 
	C5.535871,234.956223 3.268045,234.333344 0.999999,234.000000 
	C1.000000,230.969406 1.000000,227.938812 1.000000,224.454102 
z"/>
<path fill="#FFCBD4" opacity="1.000000" stroke="none" 
	d="
M408.112579,464.044312 
	C400.651947,469.045288 393.376373,474.353394 385.692627,478.984192 
	C368.981415,489.055817 351.246368,497.061310 332.391022,502.066437 
	C318.733917,505.691772 304.742249,508.054413 290.910553,511.030273 
	C290.021454,511.221619 289.225372,511.845184 288.692993,512.633850 
	C267.979095,513.000000 246.958206,513.000000 225.468658,513.000000 
	C224.351547,512.333313 223.759720,511.152802 223.046478,511.074219 
	C198.006882,508.315491 174.283157,501.032684 151.331223,490.821747 
	C134.894943,483.509460 119.553772,474.431763 105.416924,463.201447 
	C107.631638,462.473663 109.589188,462.034454 111.547554,462.030731 
	C136.195312,461.983917 160.843201,462.000000 185.491043,462.000000 
	C257.436127,462.000000 329.381256,461.981384 401.326172,462.085907 
	C403.589233,462.089203 405.850494,463.362854 408.112579,464.044312 
z"/>
<path fill="#FFF3F4" opacity="1.000000" stroke="none" 
	d="
M105.885544,49.957626 
	C113.332977,44.963169 120.591141,39.653934 128.266678,35.038845 
	C144.982544,24.988068 162.693497,16.941538 181.559280,11.964578 
	C195.240875,8.355247 209.240433,5.953529 223.087479,2.963591 
	C223.977066,2.771508 224.774139,2.150895 225.307129,1.364812 
	C246.020889,1.000000 267.041779,1.000000 288.531342,1.000003 
	C289.482239,1.659892 289.920593,2.858418 290.453094,2.901790 
	C309.392792,4.444433 327.605804,9.316314 345.165588,16.159655 
	C358.248199,21.258150 370.875549,27.627060 383.388519,34.048157 
	C391.478729,38.199661 398.996735,43.466274 406.717407,48.912315 
	C404.650269,50.060959 402.637115,50.939823 400.623413,50.941231 
	C304.480713,51.008575 208.338013,51.006630 112.195320,50.956486 
	C110.091888,50.955387 107.988792,50.305084 105.885544,49.957626 
z"/>
<path fill="#FFE1E6" opacity="1.000000" stroke="none" 
	d="
M0.999999,234.467957 
	C3.268045,234.333344 5.535871,234.956223 7.804171,234.957962 
	C75.512169,235.009659 143.220215,234.999878 211.447937,235.371384 
	C212.031464,236.492661 212.095291,237.242386 212.099091,238.423752 
	C212.758667,243.221985 213.478287,247.588577 214.197906,251.955170 
	C208.709946,251.972824 203.222000,251.990479 197.081421,251.684906 
	C195.739197,248.380066 195.049606,245.398438 194.266464,242.012299 
	C183.845444,246.369293 173.067520,248.916672 161.695480,247.968842 
	C158.471512,247.700150 159.134171,250.186554 158.839340,251.994736 
	C106.538666,251.996490 54.237991,251.998245 1.468657,252.000000 
	C1.000000,246.311966 1.000000,240.623917 0.999999,234.467957 
z"/>
<path fill="#000000" opacity="1.000000" stroke="none" 
	d="
M513.000000,280.750000 
	C512.523376,280.990906 512.046814,280.981812 511.570190,280.972717 
	C511.843201,280.452667 512.116211,279.932587 512.694580,279.706238 
	C513.000000,280.000000 513.000000,280.500000 513.000000,280.750000 
z"/>
<path fill="#FFD7DD" opacity="1.000000" stroke="none" 
	d="
M34.166706,383.995972 
	C20.529915,361.614258 12.432884,337.069702 6.048986,311.862579 
	C5.811597,310.925232 5.997918,309.880585 5.936399,308.464539 
	C10.833939,307.695435 15.781244,307.056580 20.729881,307.046082 
	C59.840294,306.963135 98.950951,307.000000 138.709030,307.325623 
	C140.628586,311.761536 141.900635,315.871826 143.172379,320.361969 
	C145.662613,328.876831 148.153168,337.011841 150.721741,345.544006 
	C151.891998,349.959961 152.984253,353.978790 154.093613,358.383911 
	C154.840500,361.512146 155.570297,364.254120 156.250427,367.368164 
	C157.232269,370.823669 158.263748,373.907166 159.272675,377.353027 
	C159.477371,379.141998 159.704651,380.568542 159.523346,382.055603 
	C153.674667,382.101898 148.234589,382.087646 142.572479,381.822327 
	C141.614410,379.698944 140.878357,377.826569 140.110886,375.560333 
	C136.133331,360.995728 132.187195,346.825012 128.150635,332.329559 
	C119.679771,341.331543 110.500450,362.239868 108.546112,376.195526 
	C107.871414,378.310638 107.421417,380.153534 106.558540,382.054688 
	C104.030678,382.408630 101.916542,382.953888 99.800575,382.961090 
	C80.366341,383.027161 60.931656,382.965027 41.497520,383.044006 
	C39.052666,383.053955 36.610249,383.663971 34.166706,383.995972 
z"/>
<path fill="#FE808A" opacity="1.000000" stroke="none" 
	d="
M143.172699,319.982117 
	C141.900635,315.871826 140.628586,311.761536 139.177612,307.325623 
	C137.921173,303.182648 136.820480,299.371613 135.771378,295.546478 
	C134.067505,289.333862 137.675949,284.316681 144.138916,283.897339 
	C145.134964,283.832703 146.137939,283.868500 147.137711,283.868469 
	C220.459030,283.867523 293.780396,283.892029 367.101624,283.815430 
	C372.255310,283.810059 376.355682,284.861206 378.151611,291.063110 
	C377.950134,293.624573 377.895599,295.468933 377.414124,297.194061 
	C375.288574,304.809326 373.040131,312.390320 370.382812,319.988831 
	C363.122192,319.995972 356.314331,320.057648 349.507812,319.989594 
	C320.992706,319.704529 292.478088,319.372284 263.962708,319.121735 
	C263.289856,319.115814 262.610352,319.867004 261.492920,320.175812 
	C258.055908,320.145233 255.059891,320.203918 251.831421,319.941650 
	C248.694138,319.747101 245.789368,319.981659 242.884445,319.983429 
	C209.647202,320.003448 176.409958,319.988068 143.172699,319.982117 
z"/>
<path fill="#FFDAE0" opacity="1.000000" stroke="none" 
	d="
M370.836182,319.983704 
	C373.040131,312.390320 375.288574,304.809326 377.414124,297.194061 
	C377.895599,295.468933 377.950134,293.624573 378.280701,291.408936 
	C422.212585,290.988312 466.064941,290.993866 510.375366,290.998779 
	C509.063690,300.992706 507.368286,311.001373 505.476501,320.972809 
	C504.944458,323.777313 503.835968,326.472412 502.454651,329.608398 
	C459.621124,329.999390 417.324768,330.015869 375.028595,329.950500 
	C372.990784,329.947357 370.954102,329.223175 368.923218,328.453400 
	C369.565094,325.375946 370.200653,322.679810 370.836182,319.983704 
z"/>
<path fill="#FE6D88" opacity="1.000000" stroke="none" 
	d="
M214.429504,252.207703 
	C213.478287,247.588577 212.758667,243.221985 212.554871,238.426361 
	C242.327896,237.995651 271.585114,237.993958 300.842346,237.992249 
	C300.549683,242.035767 300.257019,246.079269 299.895874,250.541351 
	C299.511810,251.860138 299.158386,252.749115 298.886444,253.662338 
	C295.797913,264.033630 293.272736,265.936859 282.562988,265.936859 
	C264.425903,265.936859 246.283325,265.688202 228.155167,266.090118 
	C222.796021,266.208954 219.720291,264.486603 217.853058,259.758484 
	C216.878403,257.290497 215.730667,254.890793 214.429504,252.207703 
z"/>
<path fill="#FE7189" opacity="1.000000" stroke="none" 
	d="
M158.897980,252.417908 
	C159.134171,250.186554 158.471512,247.700150 161.695480,247.968842 
	C173.067520,248.916672 183.845444,246.369293 194.266464,242.012299 
	C195.049606,245.398438 195.739197,248.380066 196.598938,251.690643 
	C197.870056,256.020844 198.970978,260.022095 200.050629,264.647034 
	C200.006073,265.439819 199.982819,265.608887 199.959549,265.777954 
	C187.615112,265.820007 175.270691,265.862061 162.348267,265.685608 
	C161.585617,265.252808 161.360458,265.097015 161.094788,264.999756 
	C160.382065,260.946869 159.669327,256.893982 158.897980,252.417908 
z"/>
<path fill="#FE7189" opacity="1.000000" stroke="none" 
	d="
M317.051208,251.437073 
	C317.779602,248.240814 318.477509,245.459457 319.244934,242.400955 
	C323.908569,243.961899 328.274780,246.026642 332.859253,246.803635 
	C338.476318,247.755615 344.288025,247.506348 349.988342,248.057785 
	C351.389984,248.193405 352.686035,249.420532 354.096130,250.569855 
	C353.778900,255.388947 353.396179,259.784058 352.761292,264.688812 
	C352.287262,265.359711 352.119080,265.564941 352.004517,265.814148 
	C339.657745,265.841034 327.311005,265.867950 314.462219,265.576050 
	C313.918274,265.084839 313.876343,264.912415 313.834473,264.740021 
	C314.896545,260.444031 315.958618,256.148010 317.051208,251.437073 
z"/>
<path fill="#FE8396" opacity="1.000000" stroke="none" 
	d="
M352.233521,265.795715 
	C352.119080,265.564941 352.287262,265.359711 352.683960,265.100464 
	C352.901123,265.350067 352.769012,265.608337 352.233521,265.795715 
z"/>
<path fill="#FE8396" opacity="1.000000" stroke="none" 
	d="
M313.672852,264.879944 
	C313.876343,264.912415 313.918274,265.084839 313.999390,265.519623 
	C313.862793,265.527924 313.687012,265.273865 313.672852,264.879944 
z"/>
<path fill="#FE8396" opacity="1.000000" stroke="none" 
	d="
M200.165588,265.763184 
	C199.982819,265.608887 200.006073,265.439819 200.087646,265.019653 
	C200.305191,264.985352 200.485519,265.191193 200.607346,265.427277 
	C200.634445,265.479797 200.455627,265.638550 200.165588,265.763184 
z"/>
<path fill="#FE8396" opacity="1.000000" stroke="none" 
	d="
M161.143707,265.227386 
	C161.360458,265.097015 161.585617,265.252808 161.881287,265.640869 
	C161.641174,265.882721 161.374619,265.762848 161.143707,265.227386 
z"/>
<path fill="#FFECEE" opacity="1.000000" stroke="none" 
	d="
M33.882320,130.960495 
	C39.050869,122.670364 44.205200,114.371300 49.402138,106.098999 
	C50.254639,104.742020 51.294579,103.502800 52.928585,102.239899 
	C55.988155,102.847084 58.366711,103.926498 60.745941,103.927971 
	C191.885513,104.009117 323.025146,104.010506 454.164703,103.914864 
	C456.480682,103.913177 458.795715,102.636635 461.111206,101.954956 
	C467.330994,111.091049 473.637268,120.170052 479.726044,129.392654 
	C482.009094,132.850754 483.786438,136.642715 485.401672,140.627594 
	C482.393707,140.648514 479.778778,140.044235 477.163177,140.041382 
	C425.951843,139.985703 374.740387,139.986069 323.529083,140.046219 
	C321.265594,140.048874 319.002869,140.727448 316.486450,140.939896 
	C315.527374,140.101929 314.821655,139.415222 313.933136,138.455505 
	C306.258026,128.460938 297.343231,120.240974 286.603302,114.337875 
	C266.939789,103.530014 246.893066,102.610489 227.394730,114.475990 
	C219.740997,119.133598 213.090500,125.439804 205.569305,130.939697 
	C202.706207,130.589432 200.257172,130.039886 197.807602,130.037537 
	C146.114441,129.987930 94.421196,129.984253 42.728050,130.041016 
	C39.779140,130.044250 36.830883,130.640335 33.882320,130.960495 
z"/>
<path fill="#FFF0F2" opacity="1.000000" stroke="none" 
	d="
M105.554688,50.093956 
	C107.988792,50.305084 110.091888,50.955387 112.195320,50.956486 
	C208.338013,51.006630 304.480713,51.008575 400.623413,50.941231 
	C402.637115,50.939823 404.650269,50.060959 406.859131,49.236862 
	C420.080292,58.106209 431.796234,68.821716 442.583679,80.796906 
	C440.703857,81.526726 439.079529,81.970207 437.455170,81.970459 
	C314.931091,81.989326 192.407043,81.973244 69.882973,81.959892 
	C80.534851,70.126518 92.194740,59.415882 105.554688,50.093956 
z"/>
<path fill="#FFEEF0" opacity="1.000000" stroke="none" 
	d="
M69.571243,82.078957 
	C192.407043,81.973244 314.931091,81.989326 437.455170,81.970459 
	C439.079529,81.970207 440.703857,81.526726 442.719299,81.122040 
	C449.020782,87.738060 454.931183,94.522148 460.976379,101.630592 
	C458.795715,102.636635 456.480682,103.913177 454.164703,103.914864 
	C323.025146,104.010506 191.885513,104.009117 60.745941,103.927971 
	C58.366711,103.926498 55.988155,102.847084 53.250366,102.111481 
	C58.347466,95.367546 63.803486,88.782784 69.571243,82.078957 
z"/>
<path fill="#FFE7EB" opacity="1.000000" stroke="none" 
	d="
M316.739807,141.091171 
	C319.002869,140.727448 321.265594,140.048874 323.529083,140.046219 
	C374.740387,139.986069 425.951843,139.985703 477.163177,140.041382 
	C479.778778,140.044235 482.393707,140.648514 485.421265,140.985641 
	C491.224487,154.388489 496.615387,167.778473 501.633881,181.627029 
	C498.978180,182.390396 496.695496,182.955338 494.411530,182.960403 
	C466.803986,183.021530 439.195831,183.096085 411.588684,182.970230 
	C388.669739,182.865753 365.752075,182.484604 342.833160,182.317886 
	C342.075806,182.312393 341.311157,183.308624 340.359863,183.649536 
	C340.059174,183.321884 339.948517,183.182632 339.861084,182.684006 
	C338.296692,179.205292 336.709106,176.085953 335.058411,172.605560 
	C332.667938,167.822891 330.340546,163.401276 327.891541,158.659241 
	C324.093231,152.589615 320.416504,146.840393 316.739807,141.091171 
z"/>
<path fill="#FFE4E8" opacity="1.000000" stroke="none" 
	d="
M340.549896,183.837891 
	C341.311157,183.308624 342.075806,182.312393 342.833160,182.317886 
	C365.752075,182.484604 388.669739,182.865753 411.588684,182.970230 
	C439.195831,183.096085 466.803986,183.021530 494.411530,182.960403 
	C496.695496,182.955338 498.978180,182.390396 501.682800,182.024841 
	C504.405518,191.480881 506.698700,200.999664 509.021545,210.511215 
	C509.244537,211.424362 509.652161,212.292404 509.903748,213.590240 
	C507.216980,214.332748 504.600983,214.954071 501.984161,214.957321 
	C454.850891,215.015976 407.717468,214.970078 360.584259,215.057480 
	C356.858826,215.064392 353.445709,214.818436 350.065247,212.055542 
	C349.490784,212.005569 349.102203,211.964905 349.080322,211.556610 
	C347.407501,205.751373 345.756531,200.354416 344.042053,194.583130 
	C342.835632,190.751831 341.692749,187.294861 340.549896,183.837891 
z"/>
<path fill="#FFCED6" opacity="1.000000" stroke="none" 
	d="
M408.432861,463.913391 
	C405.850494,463.362854 403.589233,462.089203 401.326172,462.085907 
	C329.381256,461.981384 257.436127,462.000000 185.491043,462.000000 
	C160.843201,462.000000 136.195312,461.983917 111.547554,462.030731 
	C109.589188,462.034454 107.631638,462.473663 105.283165,462.879700 
	C93.100052,455.798615 83.422424,446.090576 73.803894,436.311615 
	C71.604248,434.075317 69.361855,431.881042 67.433350,429.292603 
	C70.346611,428.611847 72.965553,428.039276 75.584717,428.038300 
	C194.478622,427.994110 313.372559,428.013031 432.266449,427.959381 
	C437.885223,427.956848 443.503754,427.362030 449.122375,427.043060 
	C436.609741,440.326538 423.878357,453.369659 408.432861,463.913391 
z"/>
<path fill="#FFD1D8" opacity="1.000000" stroke="none" 
	d="
M449.442078,426.914612 
	C443.503754,427.362030 437.885223,427.956848 432.266449,427.959381 
	C313.372559,428.013031 194.478622,427.994110 75.584717,428.038300 
	C72.965553,428.039276 70.346611,428.611847 67.305351,428.979095 
	C58.583431,418.317383 50.196083,407.660431 42.031162,396.835754 
	C39.139996,393.002777 36.791088,388.760773 34.180660,384.350739 
	C36.610249,383.663971 39.052666,383.053955 41.497520,383.044006 
	C60.931656,382.965027 80.366341,383.027161 99.800575,382.961090 
	C101.916542,382.953888 104.030678,382.408630 106.576202,382.493774 
	C106.675026,388.158997 106.061798,393.444519 106.082275,398.727539 
	C106.108337,405.447418 108.867180,407.939758 115.629189,407.979523 
	C124.270088,408.030334 132.911499,407.992767 141.552689,407.993256 
	C143.939468,407.993378 146.326263,407.993256 149.300278,407.993256 
	C146.959595,398.667664 144.877045,390.370514 142.794495,382.073364 
	C148.234589,382.087646 153.674667,382.101898 159.687439,382.385559 
	C161.167648,385.112213 162.075180,387.569397 163.019531,390.420044 
	C164.066208,394.655426 165.311951,398.454254 166.023193,402.350677 
	C166.821976,406.726532 168.952316,408.123627 173.487976,408.102570 
	C213.486420,407.916809 253.486099,407.994843 293.485413,407.994843 
	C309.485138,407.994843 325.485504,408.058380 341.483551,407.894440 
	C343.056030,407.878357 345.585358,406.818085 346.012756,405.640686 
	C347.984222,400.209747 349.368439,394.565552 351.034302,388.678467 
	C351.688995,387.230011 352.272552,386.100891 353.332764,384.980194 
	C359.485046,384.988312 365.160645,384.987976 370.747559,385.349152 
	C368.546234,392.963470 366.433655,400.216309 364.168793,407.992035 
	C375.516632,407.992035 386.314423,408.011261 397.112061,407.985291 
	C404.302612,407.967987 407.305420,405.207184 408.562012,397.997192 
	C426.810303,397.999054 444.597687,397.890350 462.380127,398.137512 
	C464.615265,398.168579 466.824402,400.073944 469.045593,401.110962 
	C464.012573,407.921875 458.993225,414.742950 453.937408,421.536957 
	C452.603302,423.329681 451.156708,425.038696 449.442078,426.914612 
z"/>
<path fill="#FFD6DD" opacity="1.000000" stroke="none" 
	d="
M370.836273,384.987671 
	C365.160645,384.987976 359.485046,384.988312 353.364838,384.577332 
	C353.344513,381.794586 353.768768,379.423096 354.430450,376.775055 
	C355.455597,373.332733 356.243347,370.166992 357.190430,366.679138 
	C358.206421,363.570526 359.063049,360.783997 360.083557,357.656311 
	C361.281372,353.258331 362.315308,349.201508 363.566650,344.859222 
	C365.495026,339.327423 367.205963,334.081085 368.916931,328.834747 
	C370.954102,329.223175 372.990784,329.947357 375.028595,329.950500 
	C417.324768,330.015869 459.621124,329.999390 502.375488,329.998291 
	C497.477814,343.910767 492.122101,357.823975 485.964661,371.877563 
	C458.454559,372.011261 431.746185,372.004547 404.854370,371.670410 
	C400.277710,357.679199 395.695038,344.105957 385.817139,331.946411 
	C382.002808,346.087097 378.383392,359.505188 374.530823,373.196350 
	C373.143829,377.308868 371.990051,381.148254 370.836273,384.987671 
z"/>
<path fill="#FFD3DB" opacity="1.000000" stroke="none" 
	d="
M405.037781,371.997833 
	C431.746185,372.004547 458.454559,372.011261 485.638794,372.030212 
	C481.013733,380.924164 475.911102,389.804871 470.815216,398.689453 
	C470.417053,399.383636 470.065948,400.104797 469.369263,400.962158 
	C466.824402,400.073944 464.615265,398.168579 462.380127,398.137512 
	C444.597687,397.890350 426.810303,397.999054 408.524231,397.564819 
	C406.969147,389.082214 405.914307,381.033386 404.908539,372.738708 
	C404.984344,372.327881 405.011078,372.162872 405.037781,371.997833 
z"/>
<path fill="#FFE9EC" opacity="1.000000" stroke="none" 
	d="
M33.559315,131.104187 
	C36.830883,130.640335 39.779140,130.044250 42.728050,130.041016 
	C94.421196,129.984253 146.114441,129.987930 197.807602,130.037537 
	C200.257172,130.039886 202.706207,130.589432 205.440536,131.246124 
	C203.453369,134.353745 201.181152,137.099380 198.612000,140.014465 
	C194.193024,146.428955 190.071030,152.673965 185.680450,159.128860 
	C183.224442,163.223083 181.037018,167.107422 178.390381,170.993927 
	C128.128357,170.997406 78.325531,170.973389 28.522842,171.043396 
	C24.070368,171.049652 19.618750,171.665726 15.166735,171.998581 
	C21.189924,158.415009 27.213116,144.831436 33.559315,131.104187 
z"/>
<path fill="#FFE5E9" opacity="1.000000" stroke="none" 
	d="
M15.001890,172.348389 
	C19.618750,171.665726 24.070368,171.049652 28.522842,171.043396 
	C78.325531,170.973389 128.128357,170.997406 178.427780,171.234573 
	C178.924408,171.473038 178.975510,171.957291 178.712555,172.186127 
	C176.912903,175.924408 175.376236,179.433838 173.558029,183.162781 
	C171.905884,187.254639 170.535294,191.126999 168.982025,195.331131 
	C167.214981,200.445953 165.630630,205.229019 164.046280,210.012070 
	C111.391754,210.007874 58.737221,210.003693 5.624640,209.999115 
	C6.449492,203.431030 7.437919,196.787598 9.101590,190.317825 
	C10.636758,184.347763 12.896465,178.563995 15.001890,172.348389 
z"/>
<path fill="#FE5786" opacity="1.000000" stroke="none" 
	d="
M169.164703,194.999359 
	C170.535294,191.126999 171.905884,187.254639 174.039093,183.180435 
	C229.813751,183.000183 284.825806,183.021790 339.837891,183.043396 
	C339.948517,183.182632 340.059174,183.321884 340.359863,183.649521 
	C341.692749,187.294861 342.835632,190.751831 343.649902,194.751892 
	C341.361847,195.529999 339.403015,195.963577 337.442963,195.969086 
	C318.947418,196.021042 300.451324,195.951172 281.956573,196.083710 
	C280.300720,196.095566 278.653290,197.282867 277.001953,197.924286 
	C269.726379,196.927032 262.460022,195.247604 255.172348,195.149368 
	C249.390915,195.071426 243.583344,196.930130 237.289978,197.539886 
	C235.116577,196.767227 233.442017,196.057343 231.764404,196.050079 
	C213.339737,195.970322 194.914444,196.036926 176.489807,195.955627 
	C174.046738,195.944855 171.606339,195.332901 169.164703,194.999359 
z"/>
<path fill="#FE6588" opacity="1.000000" stroke="none" 
	d="
M300.898010,237.566833 
	C271.585114,237.993958 242.327896,237.995651 212.614899,237.994720 
	C212.095291,237.242386 212.031464,236.492661 211.906967,235.371124 
	C212.775162,233.577576 213.377792,231.624023 214.686386,230.821274 
	C222.569153,225.985626 230.334869,220.825378 238.663086,216.877884 
	C255.244064,209.018631 270.899384,213.065186 285.759827,222.171906 
	C289.659149,224.561462 293.173981,227.695602 297.277313,229.600449 
	C301.002380,231.329712 301.292297,233.872940 300.898010,237.566833 
z"/>
<path fill="#FE5E87" opacity="1.000000" stroke="none" 
	d="
M168.982025,195.331116 
	C171.606339,195.332901 174.046738,195.944855 176.489807,195.955627 
	C194.914444,196.036926 213.339737,195.970322 231.764404,196.050079 
	C233.442017,196.057343 235.116577,196.767227 236.895111,197.537369 
	C223.601395,205.511734 210.237320,213.157257 196.791168,220.655579 
	C192.179443,223.227356 187.362320,225.430817 181.952652,227.930496 
	C179.492203,228.666824 177.718124,229.275192 175.944046,229.883545 
	C175.206253,229.908875 174.468445,229.934204 172.921875,229.969543 
	C169.742889,230.034119 167.372711,230.088669 165.002518,230.143219 
	C159.547974,230.548737 160.823776,226.631195 161.245041,223.804031 
	C161.895126,219.441040 163.067123,215.155838 164.032013,210.424866 
	C165.630630,205.229019 167.214981,200.445953 168.982025,195.331116 
z"/>
<path fill="#FE5E87" opacity="1.000000" stroke="none" 
	d="
M277.304871,198.116562 
	C278.653290,197.282867 280.300720,196.095566 281.956573,196.083710 
	C300.451324,195.951172 318.947418,196.021042 337.442963,195.969086 
	C339.403015,195.963577 341.361847,195.529999 343.713440,195.126221 
	C345.756531,200.354416 347.407501,205.751373 348.603638,211.567734 
	C333.378174,212.012726 318.607574,212.038300 303.836975,212.063873 
	C295.093933,207.478867 286.350861,202.893845 277.304871,198.116562 
z"/>
<path fill="#FE6288" opacity="1.000000" stroke="none" 
	d="
M304.033325,212.345917 
	C318.607574,212.038300 333.378174,212.012726 348.625488,211.976028 
	C349.102203,211.964905 349.490784,212.005569 349.684753,212.026642 
	C350.867371,217.667969 351.855988,223.288223 352.935577,229.425522 
	C344.649109,230.748871 336.615021,230.614502 329.264679,226.888214 
	C320.708801,222.550766 312.556885,217.416458 304.033325,212.345917 
z"/>
<path fill="#FFE1E6" opacity="1.000000" stroke="none" 
	d="
M165.061310,230.505508 
	C167.372711,230.088669 169.742889,230.034119 172.555771,230.020081 
	C170.842606,233.920303 168.472198,234.163177 165.061310,230.505508 
z"/>
<path fill="#FFE1E6" opacity="1.000000" stroke="none" 
	d="
M176.166718,230.164307 
	C177.718124,229.275192 179.492203,228.666824 181.631134,228.102753 
	C180.127121,228.913071 178.258255,229.679062 176.166718,230.164307 
z"/>
<path fill="#FF8C8B" opacity="1.000000" stroke="none" 
	d="
M368.923218,328.453400 
	C367.205963,334.081085 365.495026,339.327423 363.063263,344.812378 
	C303.924194,345.034027 245.505936,345.008270 187.087677,345.007172 
	C174.939697,345.006958 162.791702,345.097931 150.643723,345.146851 
	C148.153168,337.011841 145.662613,328.876831 143.172379,320.361969 
	C176.409958,319.988068 209.647202,320.003448 242.884445,319.983429 
	C245.789368,319.981659 248.694138,319.747101 251.650177,320.217041 
	C247.136642,325.920197 246.849152,330.408020 250.835541,334.330231 
	C254.364868,337.802734 259.287354,337.899506 262.920105,334.567810 
	C267.077393,330.755035 266.943085,326.091949 262.535431,321.055634 
	C262.317902,320.807037 262.133698,320.529236 261.933960,320.265045 
	C262.610352,319.867004 263.289856,319.115814 263.962708,319.121735 
	C292.478088,319.372284 320.992706,319.704529 349.507812,319.989594 
	C356.314331,320.057648 363.122192,319.995972 370.382812,319.988831 
	C370.200653,322.679810 369.565094,325.375946 368.923218,328.453400 
z"/>
<path fill="#FF938B" opacity="1.000000" stroke="none" 
	d="
M150.721741,345.544006 
	C162.791702,345.097931 174.939697,345.006958 187.087677,345.007172 
	C245.505936,345.008270 303.924194,345.034027 362.845825,345.097870 
	C362.315308,349.201508 361.281372,353.258331 359.622803,357.657135 
	C290.690948,357.998627 222.383728,357.998108 154.076508,357.997620 
	C152.984253,353.978790 151.891998,349.959961 150.721741,345.544006 
z"/>
<path fill="#FF9D8C" opacity="1.000000" stroke="none" 
	d="
M354.193054,377.051575 
	C353.768768,379.423096 353.344513,381.794586 352.888184,384.568909 
	C352.272552,386.100891 351.688995,387.230011 350.569458,388.679199 
	C289.742676,388.999542 229.451797,388.989655 169.161011,389.043243 
	C167.101288,389.045074 165.042114,389.684418 162.982697,390.026611 
	C162.075180,387.569397 161.167648,385.112213 160.096024,382.325043 
	C159.704651,380.568542 159.477371,379.141998 159.711334,377.356110 
	C224.846054,377.015045 289.519562,377.033325 354.193054,377.051575 
z"/>
<path fill="#FF998C" opacity="1.000000" stroke="none" 
	d="
M354.430450,376.775024 
	C289.519562,377.033325 224.846054,377.015045 159.733902,376.993713 
	C158.263748,373.907166 157.232269,370.823669 156.688690,367.369049 
	C223.794754,366.998993 290.412933,367.000092 357.031097,367.001221 
	C356.243347,370.166992 355.455597,373.332733 354.430450,376.775024 
z"/>
<path fill="#FF968C" opacity="1.000000" stroke="none" 
	d="
M357.190430,366.679138 
	C290.412933,367.000092 223.794754,366.998993 156.738342,366.997009 
	C155.570297,364.254120 154.840500,361.512146 154.093613,358.383911 
	C222.383728,357.998108 290.690948,357.998627 359.458923,357.998322 
	C359.063049,360.783997 358.206421,363.570526 357.190430,366.679138 
z"/>
<path fill="#FFA08D" opacity="1.000000" stroke="none" 
	d="
M142.572479,381.822327 
	C144.877045,390.370514 146.959595,398.667664 149.300278,407.993256 
	C146.326263,407.993256 143.939468,407.993378 141.552689,407.993256 
	C132.911499,407.992767 124.270088,408.030334 115.629189,407.979523 
	C108.867180,407.939758 106.108337,405.447418 106.082275,398.727539 
	C106.061798,393.444519 106.675026,388.158997 106.989090,382.435516 
	C107.421417,380.153534 107.871414,378.310638 109.038239,376.221375 
	C119.884132,375.968079 130.013214,375.961151 140.142303,375.954224 
	C140.878357,377.826569 141.614410,379.698944 142.572479,381.822327 
z"/>
<path fill="#FF968C" opacity="1.000000" stroke="none" 
	d="
M140.110870,375.560333 
	C130.013214,375.961151 119.884132,375.968079 109.262932,375.949158 
	C110.500450,362.239868 119.679771,341.331543 128.150635,332.329559 
	C132.187195,346.825012 136.133331,360.995728 140.110870,375.560333 
z"/>
<path fill="#FFD6DD" opacity="1.000000" stroke="none" 
	d="
M261.492920,320.175812 
	C262.133698,320.529236 262.317902,320.807037 262.535431,321.055634 
	C266.943085,326.091949 267.077393,330.755035 262.920105,334.567810 
	C259.287354,337.899506 254.364868,337.802734 250.835541,334.330231 
	C246.849152,330.408020 247.136642,325.920197 251.882629,320.538025 
	C255.059891,320.203918 258.055908,320.145233 261.492920,320.175812 
z"/>
<path fill="#FD4385" opacity="1.000000" stroke="none" 
	d="
M198.908966,139.845001 
	C201.181152,137.099380 203.453369,134.353745 205.854340,131.301666 
	C213.090500,125.439804 219.740997,119.133598 227.394730,114.475990 
	C246.893066,102.610489 266.939789,103.530014 286.603302,114.337875 
	C297.343231,120.240974 306.258026,128.460938 313.846130,138.851929 
	C311.942963,140.347473 309.947052,141.885132 307.944550,141.893768 
	C273.700226,142.041351 239.454941,142.037720 205.210464,141.907578 
	C203.107376,141.899597 201.009354,140.563293 198.908966,139.845001 
z"/>
<path fill="#FD4B85" opacity="1.000000" stroke="none" 
	d="
M198.612000,140.014481 
	C201.009354,140.563293 203.107376,141.899597 205.210464,141.907578 
	C239.454941,142.037720 273.700226,142.041351 307.944550,141.893768 
	C309.947052,141.885132 311.942963,140.347473 314.028961,139.124954 
	C314.821655,139.415222 315.527374,140.101929 316.486450,140.939896 
	C320.416504,146.840393 324.093231,152.589615 327.634949,158.945816 
	C325.253357,160.035126 323.007568,160.933716 320.760010,160.938141 
	C278.307526,161.021835 235.854767,161.034805 193.402512,160.910889 
	C190.916107,160.903625 188.433426,159.612579 185.949036,158.918976 
	C190.071030,152.673965 194.193024,146.428955 198.612000,140.014481 
z"/>
<path fill="#FD5086" opacity="1.000000" stroke="none" 
	d="
M185.680450,159.128860 
	C188.433426,159.612579 190.916107,160.903625 193.402512,160.910889 
	C235.854767,161.034805 278.307526,161.021835 320.760010,160.938141 
	C323.007568,160.933716 325.253357,160.035126 327.756561,159.266235 
	C330.340546,163.401276 332.667938,167.822891 334.634064,172.665283 
	C332.487183,173.390625 330.701782,173.959412 328.915833,173.961212 
	C280.655640,174.009598 232.395355,174.020950 184.135376,173.913864 
	C182.413971,173.910049 180.695404,172.638184 178.975510,171.957291 
	C178.975510,171.957291 178.924408,171.473038 178.887009,171.232391 
	C181.037018,167.107422 183.224442,163.223083 185.680450,159.128860 
z"/>
<path fill="#FD5486" opacity="1.000000" stroke="none" 
	d="
M178.712555,172.186127 
	C180.695404,172.638184 182.413971,173.910049 184.135376,173.913864 
	C232.395355,174.020950 280.655640,174.009598 328.915833,173.961212 
	C330.701782,173.959412 332.487183,173.390625 334.697174,173.026337 
	C336.709106,176.085953 338.296692,179.205292 339.861084,182.684021 
	C284.825806,183.021790 229.813751,183.000183 174.320618,182.960938 
	C175.376236,179.433838 176.912903,175.924408 178.712555,172.186127 
z"/>
<path fill="#FFA28D" opacity="1.000000" stroke="none" 
	d="
M163.019531,390.420044 
	C165.042114,389.684418 167.101288,389.045074 169.161011,389.043243 
	C229.451797,388.989655 289.742676,388.999542 350.498352,388.998566 
	C349.368439,394.565552 347.984222,400.209747 346.012756,405.640686 
	C345.585358,406.818085 343.056030,407.878357 341.483551,407.894440 
	C325.485504,408.058380 309.485138,407.994843 293.485413,407.994843 
	C253.486099,407.994843 213.486420,407.916809 173.487976,408.102570 
	C168.952316,408.123627 166.821976,406.726532 166.023193,402.350677 
	C165.311951,398.454254 164.066208,394.655426 163.019531,390.420044 
z"/>
<path fill="#FF9F8D" opacity="1.000000" stroke="none" 
	d="
M404.859436,372.984558 
	C405.914307,381.033386 406.969147,389.082214 408.061798,397.563446 
	C407.305420,405.207184 404.302612,407.967987 397.112061,407.985291 
	C386.314423,408.011261 375.516632,407.992035 364.168793,407.992035 
	C366.433655,400.216309 368.546234,392.963470 370.747559,385.349152 
	C371.990051,381.148254 373.143829,377.308868 375.023621,373.221985 
	C385.452911,372.977844 395.156158,372.981201 404.859436,372.984558 
z"/>
<path fill="#FF938B" opacity="1.000000" stroke="none" 
	d="
M404.908539,372.738708 
	C395.156158,372.981201 385.452911,372.977844 375.256836,372.948853 
	C378.383392,359.505188 382.002808,346.087097 385.817139,331.946411 
	C395.695038,344.105957 400.277710,357.679199 404.854370,371.670410 
	C405.011078,372.162872 404.984344,372.327881 404.908539,372.738708 
z"/>
</svg>